<svg width="36" height="36" viewBox="0 0 36 36" fill="none" xmlns="http://www.w3.org/2000/svg">
<path d="M17.995 2.95C17.566 2.95 17.194 3.107 16.88 3.421L8.63201 11.669H2.14301C1.71301 11.669 1.34201 11.826 1.02801 12.14C0.714007 12.454 0.557007 12.826 0.557007 13.255V22.765C0.557007 23.194 0.714007 23.566 1.02801 23.88C1.34201 24.194 1.71401 24.351 2.14301 24.351H8.63201L16.88 32.599C17.194 32.913 17.565 33.07 17.995 33.07C18.425 33.07 18.796 32.913 19.11 32.599C19.424 32.285 19.581 31.914 19.581 31.484V4.536C19.581 4.107 19.424 3.735 19.111 3.421C18.798 3.107 18.426 2.95 17.996 2.95H17.995Z" fill="white"/>
<path d="M28.04 21.515C28.742 20.434 29.093 19.266 29.093 18.01C29.093 16.754 28.742 15.582 28.04 14.492C27.338 13.402 26.41 12.634 25.253 12.188C25.088 12.106 24.881 12.064 24.634 12.064C24.205 12.064 23.833 12.217 23.519 12.522C23.205 12.829 23.048 13.203 23.048 13.649C23.048 13.996 23.147 14.289 23.346 14.528C23.545 14.767 23.783 14.974 24.064 15.147C24.344 15.32 24.625 15.51 24.906 15.717C25.187 15.924 25.426 16.216 25.624 16.596C25.822 16.976 25.921 17.447 25.921 18.008C25.921 18.569 25.822 19.04 25.624 19.42C25.426 19.8 25.187 20.093 24.906 20.299C24.625 20.505 24.344 20.696 24.064 20.869C23.783 21.042 23.544 21.249 23.346 21.488C23.148 21.727 23.048 22.021 23.048 22.367C23.048 22.813 23.206 23.188 23.519 23.494C23.833 23.798 24.204 23.953 24.634 23.953C24.881 23.953 25.088 23.912 25.253 23.829C26.409 23.366 27.338 22.594 28.04 21.512V21.515Z" fill="white"/>
</svg>
